# xmcd CD database file
#
# Track frame offsets:
#	150
#	16108
#	33588
#	44813
#	62389
#	74911
#	91020
#	111504
#	132762
#	149008
#	161635
#	178259
#	196778
#
# Disc length: 2857 seconds
#
# Revision: 1
# Processed by: cddbd v1.5.2PL0 Copyright (c) Steve Scherf et al.
# Submitted via: CDex 2.21
#
DISCID=c00b270d
DTITLE=Ilse DeLange and Waylon - The Common Linnets
DYEAR=2014
DGENRE=Country
TTITLE0=Calm after the Storm
TTITLE1=Hungry Hands
TTITLE2=Arms of Salvation
TTITLE3=Still Loving after You
TTITLE4=Sun Song
TTITLE5=Lovers and Liars
TTITLE6=Broken but Home
TTITLE7=Before complete Surrender
TTITLE8=Where do I go with Me
TTITLE9=Time has no Mercy
TTITLE10=Give me a Reason
TTITLE11=When Love was King
TTITLE12=Love Goes  On
EXTD=YEAR: 2014
EXTT0=
EXTT1=
EXTT2=
EXTT3=
EXTT4=
EXTT5=
EXTT6=
EXTT7=
EXTT8=
EXTT9=
EXTT10=
EXTT11=
EXTT12=
PLAYORDER=
